HIERARCHY
ROOT joint_Root
{
	OFFSET 0.0 0.0 0.0
	CHANNELS 6 Xposition Yposition Zposition Zrotation Xrotation Yrotation 
	JOINT Hips
	{
		OFFSET 4.5925 91.4895 -427.239
		CHANNELS 6 Xposition Yposition Zposition Zrotation Xrotation Yrotation 
		JOINT Spine
		{
			OFFSET 15.7357 0.0 0.0
			CHANNELS 6 Xposition Yposition Zposition Zrotation Xrotation Yrotation 
			JOINT Chest
			{
				OFFSET 8.98455 -0.406207 0.0
				CHANNELS 6 Xposition Yposition Zposition Zrotation Xrotation Yrotation 
				JOINT Neck
				{
					OFFSET 16.3773 0.0 0.0
					CHANNELS 6 Xposition Yposition Zposition Zrotation Xrotation Yrotation 
					JOINT Head
					{
						OFFSET 6.45672 0.0 0.0
						CHANNELS 6 Xposition Yposition Zposition Zrotation Xrotation Yrotation 
						End Site
						{
							OFFSET 0.0 0.0 0.0
						}
					}
				}
				JOINT Shoulder_L
				{
					OFFSET 12.9942 -0.242716 4.98039
					CHANNELS 6 Xposition Yposition Zposition Zrotation Xrotation Yrotation 
					JOINT UpperArm_L
					{
						OFFSET 5.34809 0.0 0.0
						CHANNELS 6 Xposition Yposition Zposition Zrotation Xrotation Yrotation 
						JOINT LowerArm_L
						{
							OFFSET 24.3286 1.87007e-05 0.0
							CHANNELS 6 Xposition Yposition Zposition Zrotation Xrotation Yrotation 
							JOINT Hand_L
							{
								OFFSET 22.2916 0.0 0.0
								CHANNELS 6 Xposition Yposition Zposition Zrotation Xrotation Yrotation 
								End Site
								{
									OFFSET 0.0 0.0 0.0
								}
							}
						}
					}
				}
				JOINT Shoulder_R
				{
					OFFSET 12.9945 -0.242716 -4.98039
					CHANNELS 6 Xposition Yposition Zposition Zrotation Xrotation Yrotation 
					JOINT UpperArm_R
					{
						OFFSET -5.34813 0.0 0.0
						CHANNELS 6 Xposition Yposition Zposition Zrotation Xrotation Yrotation 
						JOINT LowerArm_R
						{
							OFFSET -24.3289 0.000322201 0.0
							CHANNELS 6 Xposition Yposition Zposition Zrotation Xrotation Yrotation 
							JOINT Hand_R
							{
								OFFSET -22.2915 -0.000108084 0.0
								CHANNELS 6 Xposition Yposition Zposition Zrotation Xrotation Yrotation 
								End Site
								{
									OFFSET 0.0 0.0 0.0
								}
							}
						}
					}
				}
			}
		}
		JOINT UpperLeg_L
		{
			OFFSET -2.19248 -6.46944 0.0
			CHANNELS 6 Xposition Yposition Zposition Zrotation Xrotation Yrotation 
			JOINT LowerLeg_L
			{
				OFFSET 39.0811 0.0 -1.23785e-05
				CHANNELS 6 Xposition Yposition Zposition Zrotation Xrotation Yrotation 
				JOINT Foot_L
				{
					OFFSET 40.9854 0.0 -1.26872e-05
					CHANNELS 6 Xposition Yposition Zposition Zrotation Xrotation Yrotation 
					JOINT Toes_L
					{
						OFFSET 11.7543 0.0 0.0
						CHANNELS 6 Xposition Yposition Zposition Zrotation Xrotation Yrotation 
						End Site
						{
							OFFSET 0.0 0.0 0.0
						}
					}
				}
			}
		}
		JOINT UpperLeg_R
		{
			OFFSET -2.19251 6.46944 0.0
			CHANNELS 6 Xposition Yposition Zposition Zrotation Xrotation Yrotation 
			JOINT LowerLeg_R
			{
				OFFSET -39.0811 -0.00228153 -0.0401928
				CHANNELS 6 Xposition Yposition Zposition Zrotation Xrotation Yrotation 
				JOINT Foot_R
				{
					OFFSET -40.9854 0.0 0.0
					CHANNELS 6 Xposition Yposition Zposition Zrotation Xrotation Yrotation 
					JOINT Toes_R
					{
						OFFSET -11.7543 0.0 0.0
						CHANNELS 6 Xposition Yposition Zposition Zrotation Xrotation Yrotation 
						End Site
						{
							OFFSET 0.0 0.0 0.0
						}
					}
				}
			}
		}
	}
}
MOTION
Frames:	4
Frame Time:	0.0333333
0.000000 0.000000 0.000000 0.000000 0.000000 -0.000000 146.069000 86.657200 155.596000 100.444000 -50.635900 9.563470 15.735700 0.000005 -0.000001 95.437700 84.574800 -95.455500 8.984550 -0.406207 -0.000000 3.036160 1.027900 -0.062773 16.377300 -0.000001 -0.000001 0.220077 -8.104250 3.600730 6.456720 -0.000001 -0.000000 -5.627490 -10.272700 6.912840 12.994200 -0.242716 4.980390 -91.334500 4.098340 -71.946800 5.348090 -0.000007 -0.000001 -80.961500 28.813800 11.671200 24.328600 0.000019 0.000005 -0.000841 33.171900 -0.000004 22.291600 -0.000001 0.000005 -0.415890 5.154120 3.852200 12.994500 -0.242716 -4.980390 88.425800 8.387690 -79.331300 -5.348130 -0.000001 -0.000004 -63.282000 47.189500 -18.821200 -24.328900 0.000322 -0.000009 2.768680 0.992576 -70.309600 -22.291500 -0.000108 -0.000004 15.971300 5.473680 -5.509830 -2.192480 -6.469440 -0.000000 -178.837000 -9.718580 -27.873600 39.081100 -0.000007 -0.000012 -0.100989 0.121674 39.693200 40.985400 -0.000006 -0.000013 -4.711190 11.805800 -59.790100 11.754300 -0.000000 0.000003 -0.000963 -0.014888 -17.182300 -2.192510 6.469440 -0.000001 173.699000 -5.707320 -170.176000 -39.081100 -0.002282 -0.040193 0.059800 -0.069234 39.226900 -40.985400 0.000008 0.000006 24.890000 13.979900 -74.357800 -11.754300 -0.000006 -0.000006 -0.144727 -0.544218 -39.557100
0.000000 0.000000 0.000000 0.000000 0.000000 -0.000000 143.721000 85.848800 159.909000 101.191000 -51.947600 12.058400 15.735700 0.000005 -0.000001 96.363500 84.216100 -96.474300 8.984550 -0.406207 -0.000000 3.732510 1.284330 -0.263107 16.377300 -0.000001 -0.000001 0.523617 -9.028900 3.749500 6.456720 -0.000001 -0.000000 -4.819050 -12.046900 7.681850 12.994200 -0.242716 4.980390 -91.571700 4.646270 -71.287500 5.348090 -0.000007 -0.000001 -79.911000 30.413600 10.749400 24.328600 0.000019 0.000005 0.000402 37.011900 -0.000004 22.291600 -0.000001 0.000005 -3.276070 5.158180 3.740190 12.994500 -0.242716 -4.980390 88.126500 9.648970 -78.957200 -5.348130 -0.000001 -0.000004 -63.607700 46.272100 -14.360700 -24.328900 0.000322 -0.000009 1.895270 0.649248 -71.113100 -22.291500 -0.000108 -0.000004 15.893100 5.494330 -6.306650 -2.192480 -6.469440 -0.000000 -179.129000 -7.236640 -25.551900 39.081100 -0.000007 -0.000012 -0.171872 0.166474 45.914700 40.985400 -0.000006 -0.000013 -4.088120 8.716950 -66.831200 11.754300 -0.000000 0.000003 -0.000036 -0.000429 -16.594300 -2.192510 6.469440 -0.000001 172.115000 -5.802680 -171.329000 -39.081100 -0.002282 -0.040193 0.054055 -0.046452 47.559900 -40.985400 0.000008 0.000006 22.752800 16.529100 -66.948000 -11.754300 -0.000006 -0.000006 -0.236325 -0.702290 -46.969300
0.000000 0.000000 0.000000 0.000000 0.000000 -0.000000 141.484000 85.461000 163.901000 103.538000 -54.421000 16.189100 15.735700 0.000005 -0.000001 100.732000 83.490800 -101.245000 8.984550 -0.406207 -0.000000 5.039320 2.431440 -1.131610 16.377300 -0.000001 -0.000001 0.701368 -9.522950 3.848220 6.456720 -0.000001 -0.000000 -4.551220 -13.490500 8.297170 12.994200 -0.242716 4.980390 -91.581600 4.573200 -70.899500 5.348090 -0.000007 -0.000001 -78.098600 32.350000 8.302180 24.328600 0.000019 0.000005 0.678770 37.992600 -1.104060 22.291600 -0.000001 0.000005 -3.706440 5.182620 3.149480 12.994500 -0.242716 -4.980390 88.242900 9.442910 -79.409400 -5.348130 -0.000001 -0.000004 -66.722200 43.252300 -9.511670 -24.328900 0.000322 -0.000009 1.064860 0.459162 -66.635700 -22.291500 -0.000108 -0.000004 16.745200 5.515880 -7.186870 -2.192480 -6.469440 -0.000000 179.435000 -7.810080 -21.145600 39.081100 -0.000007 -0.000012 -0.271889 0.239352 48.642200 40.985400 -0.000006 -0.000013 -3.309690 6.697790 -72.019100 11.754300 -0.000000 0.000003 -0.000188 -0.001754 -16.643800 -2.192510 6.469440 -0.000001 169.756000 -7.069250 -175.765000 -39.081100 -0.002282 -0.040193 0.043776 -0.024824 58.536100 -40.985400 0.000008 0.000006 15.581800 19.114500 -55.338100 -11.754300 -0.000006 -0.000006 -0.161673 -0.577281 -41.063400
0.000000 0.000000 0.000000 0.000000 0.000000 -0.000000 139.456000 85.267500 166.918000 104.464000 -56.968000 18.064800 15.735700 0.000005 -0.000001 101.284000 83.176200 -101.893000 8.984550 -0.406207 -0.000000 5.637150 2.675220 -1.349010 16.377300 -0.000001 -0.000001 0.599808 -9.272780 3.812810 6.456720 -0.000001 -0.000000 -4.346760 -13.604500 7.974570 12.994200 -0.242716 4.980390 -91.752000 4.925930 -70.393500 5.348090 -0.000007 -0.000001 -74.937600 32.701500 5.686830 24.328600 0.000019 0.000005 3.113320 33.890900 -5.574990 22.291600 -0.000001 0.000005 0.150887 5.183240 3.145280 12.994500 -0.242716 -4.980390 88.398400 9.143810 -80.020900 -5.348130 -0.000001 -0.000004 -68.586800 40.882800 -7.484260 -24.328900 0.000322 -0.000009 -0.982453 -0.637949 -57.092500 -22.291500 -0.000108 -0.000004 18.327800 5.501160 -6.589890 -2.192480 -6.469440 -0.000000 179.087000 -9.144850 -17.722300 39.081100 -0.000007 -0.000012 -0.342731 0.290126 49.752500 40.985400 -0.000006 -0.000013 -2.909320 5.266060 -75.670300 11.754300 -0.000000 0.000003 -0.000307 -0.002653 -16.676300 -2.192510 6.469440 -0.000001 168.919000 -8.123310 176.606000 -39.081100 -0.002282 -0.040193 0.122577 -0.046746 68.627000 -40.985400 0.000008 0.000006 1.100090 15.021700 -39.355300 -11.754300 -0.000006 -0.000006 -0.031846 -0.225803 -25.828300
